<svg width="688" height="86" viewBox="0 0 688 86" fill="none" xmlns="http://www.w3.org/2000/svg">
<path d="M324.506 0C323.122 0 322 1.12212 322 2.50633V18.1013C322 19.4855 323.122 20.6076 324.506 20.6076H341.215C341.984 20.6076 342.608 19.9842 342.608 19.2152C342.608 18.4462 341.984 17.8228 341.215 17.8228H324.785V2.78481H339.823V10.8608C339.823 11.6298 340.446 12.2532 341.215 12.2532C341.984 12.2532 342.608 11.6298 342.608 10.8608V2.50633C342.608 1.12212 341.485 0 340.101 0H324.506Z" fill="white"/>
<path d="M363.494 20.6076C364.878 20.6076 366 19.4855 366 18.1013V2.50633C366 1.12212 364.878 0 363.494 0H347.899C346.515 0 345.392 1.12212 345.392 2.50633V6.12658C345.392 6.89559 346.016 7.51899 346.785 7.51899C347.554 7.51899 348.177 6.89559 348.177 6.12658V2.78481H363.215V17.8228H350.962V14.481C350.962 13.712 350.339 13.0886 349.57 13.0886C348.801 13.0886 348.177 13.712 348.177 14.481V18.1013C348.177 19.4855 349.299 20.6076 350.683 20.6076H363.494Z" fill="white"/>
<path d="M347.899 44C346.515 44 345.392 42.8779 345.392 41.4937V28.6835C345.392 27.2993 346.515 26.1771 347.899 26.1771H351.519C352.288 26.1771 352.911 26.8005 352.911 27.5696C352.911 28.3386 352.288 28.962 351.519 28.962H348.177V41.2152H363.215V26.1772H359.873C359.104 26.1772 358.481 25.5538 358.481 24.7848C358.481 24.0158 359.104 23.3924 359.873 23.3924H363.494C364.878 23.3924 366 24.5145 366 25.8987V41.4937C366 42.8779 364.878 44 363.494 44H347.899Z" fill="white"/>
<path d="M324.506 23.3924C323.122 23.3924 322 24.5145 322 25.8987V41.4937C322 42.8779 323.122 44 324.506 44H340.101C341.485 44 342.608 42.8779 342.608 41.4937V37.8734C342.608 37.1044 341.984 36.481 341.215 36.481C340.446 36.481 339.823 37.1044 339.823 37.8734V41.2152H324.785V26.1772H339.823V29.519C339.823 30.288 340.446 30.9114 341.215 30.9114C341.984 30.9114 342.608 30.288 342.608 29.519V25.8987C342.608 24.5145 341.485 23.3924 340.101 23.3924H324.506Z" fill="white"/>
<path d="M285.113 77.0703C285.066 77.0234 285.043 76.8984 285.043 76.6953C285.043 76.4297 285.066 76.2969 285.113 76.2969C285.254 76.2969 285.434 76.2734 285.652 76.2266C285.887 76.1797 286.105 76.1172 286.309 76.0391C286.527 75.9609 286.652 75.875 286.684 75.7812C286.793 75.4688 286.848 74.7578 286.848 73.6484V64.7891C286.848 63.8359 286.793 63.1953 286.684 62.8672C286.652 62.7422 286.535 62.6406 286.332 62.5625C286.145 62.4688 285.926 62.3984 285.676 62.3516C285.441 62.3047 285.246 62.2812 285.09 62.2812C285.027 62.2812 284.996 62.1641 284.996 61.9297C284.996 61.7109 285.027 61.5703 285.09 61.5078C286.121 61.5547 287.16 61.5781 288.207 61.5781H292.262C293.527 61.5781 294.66 61.7812 295.66 62.1875C296.676 62.5781 297.527 63.125 298.215 63.8281C298.918 64.5312 299.449 65.3359 299.809 66.2422C300.184 67.1484 300.371 68.1094 300.371 69.125C300.371 70.625 300.043 71.9766 299.387 73.1797C298.746 74.3672 297.816 75.3125 296.598 76.0156C295.379 76.7188 293.926 77.0703 292.238 77.0703C292.082 77.0703 291.84 77.0625 291.512 77.0469C291.199 77.0469 290.801 77.0391 290.316 77.0234C289.832 77.0078 289.418 76.9922 289.074 76.9766C288.73 76.9609 288.449 76.9609 288.23 76.9766L285.113 77.0703ZM292.613 75.875C295.785 75.875 297.371 73.5938 297.371 69.0312C297.371 67.8594 297.176 66.8047 296.785 65.8672C296.41 64.9141 295.855 64.1562 295.121 63.5938C294.402 63.0312 293.512 62.75 292.449 62.75H292.332C290.832 62.75 289.988 62.875 289.801 63.125C289.598 63.3906 289.496 63.875 289.496 64.5781V73.7656C289.496 74.625 289.582 75.2031 289.754 75.5C290.004 75.75 290.957 75.875 292.613 75.875ZM301.707 77.0703C301.66 77.0234 301.637 76.8984 301.637 76.6953C301.637 76.4297 301.66 76.2969 301.707 76.2969C301.848 76.2969 302.027 76.2734 302.246 76.2266C302.48 76.1797 302.699 76.1172 302.902 76.0391C303.121 75.9609 303.246 75.875 303.277 75.7812C303.387 75.4688 303.441 74.7578 303.441 73.6484V64.7891C303.441 63.8359 303.387 63.1953 303.277 62.8672C303.246 62.7422 303.129 62.6406 302.926 62.5625C302.738 62.4688 302.52 62.3984 302.27 62.3516C302.035 62.3047 301.84 62.2812 301.684 62.2812C301.621 62.2812 301.59 62.1641 301.59 61.9297C301.59 61.7109 301.621 61.5703 301.684 61.5078C302.199 61.5391 302.715 61.5703 303.23 61.6016C303.746 61.6172 304.27 61.625 304.801 61.625C305.145 61.625 305.621 61.6172 306.23 61.6016C306.84 61.5703 307.574 61.5391 308.434 61.5078C310.168 61.4609 311.48 61.4375 312.371 61.4375C312.402 61.6719 312.449 61.9531 312.512 62.2812C312.574 62.6094 312.652 62.9766 312.746 63.3828L313.051 64.7656C312.973 64.8438 312.809 64.8828 312.559 64.8828C312.387 64.8828 312.277 64.8281 312.23 64.7188C311.715 63.3281 310.715 62.6328 309.23 62.6328H308.012C306.84 62.6328 306.246 62.7344 306.23 62.9375C306.137 63.375 306.09 64.0078 306.09 64.8359V68.5156C306.09 68.6094 306.434 68.6562 307.121 68.6562H308.434C309.324 68.6562 309.863 68.6172 310.051 68.5391C310.223 68.4609 310.355 68.1875 310.449 67.7188C310.496 67.5156 310.543 67.3203 310.59 67.1328C310.605 67.0234 310.73 66.9688 310.965 66.9688C311.184 66.9688 311.332 67.0078 311.41 67.0859V71.5156C311.348 71.5781 311.199 71.6094 310.965 71.6094C310.762 71.6094 310.637 71.5469 310.59 71.4219C310.527 71.2031 310.473 71.0234 310.426 70.8828C310.379 70.7266 310.34 70.5938 310.309 70.4844C310.23 70.3125 310.184 70.2188 310.168 70.2031C310.152 70.1719 310.074 70.1094 309.934 70.0156C309.715 69.8906 308.996 69.8281 307.777 69.8281C306.652 69.8281 306.09 69.8906 306.09 70.0156V73.6484C306.09 74.5078 306.16 75.1406 306.301 75.5469C306.363 75.75 306.895 75.8516 307.895 75.8516H308.762C309.996 75.8516 310.926 75.6875 311.551 75.3594C311.801 75.2344 312.082 74.9609 312.395 74.5391C312.707 74.1172 312.949 73.6406 313.121 73.1094C313.152 73.0156 313.262 72.9688 313.449 72.9688C313.793 72.9688 314.012 73.0156 314.105 73.1094L313.355 75.1953C313.262 75.4453 313.16 75.7656 313.051 76.1562C312.941 76.5312 312.871 76.8359 312.84 77.0703C312.215 77.0703 310.926 77.0469 308.973 77C307.988 76.9688 307.152 76.9531 306.465 76.9531C305.777 76.9531 305.23 76.9609 304.824 76.9766L301.707 77.0703ZM327.605 77.1875C326.574 77.1875 325.605 76.9844 324.699 76.5781C323.809 76.1719 323.02 75.6094 322.332 74.8906C321.66 74.1719 321.129 73.3516 320.738 72.4297C320.363 71.4922 320.176 70.5 320.176 69.4531C320.176 68.3438 320.371 67.3047 320.762 66.3359C321.168 65.3672 321.723 64.5078 322.426 63.7578C323.129 63.0078 323.941 62.4219 324.863 62C325.801 61.5781 326.809 61.3672 327.887 61.3672C329.293 61.3672 331.105 61.6562 333.324 62.2344C333.371 62.25 333.441 62.7656 333.535 63.7812C333.598 64.5625 333.645 65.1094 333.676 65.4219C333.707 65.7344 333.543 65.8906 333.184 65.8906C332.965 65.8906 332.793 65.8438 332.668 65.75C332.621 65.5312 332.551 65.3125 332.457 65.0938C332.379 64.875 332.23 64.5938 332.012 64.25C331.621 63.6875 331.074 63.2578 330.371 62.9609C329.684 62.6641 328.887 62.5156 327.98 62.5156C326.965 62.5156 326.09 62.7969 325.355 63.3594C324.621 63.9062 324.059 64.6719 323.668 65.6562C323.293 66.625 323.105 67.75 323.105 69.0312C323.105 70.1406 323.309 71.2188 323.715 72.2656C323.98 72.9531 324.348 73.5859 324.816 74.1641C325.301 74.7266 325.863 75.1797 326.504 75.5234C327.16 75.8516 327.871 76.0156 328.637 76.0156C329.637 76.0156 330.387 75.8672 330.887 75.5703C331.043 75.4609 331.121 75.2812 331.121 75.0312L331.098 73.3438V73.1797C331.098 72.2266 331.043 71.5938 330.934 71.2812C330.902 71.1406 330.785 71.0312 330.582 70.9531C330.379 70.8594 330.152 70.7969 329.902 70.7656C329.652 70.7188 329.434 70.6953 329.246 70.6953C329.184 70.6953 329.152 70.5781 329.152 70.3438C329.152 70.125 329.184 69.9844 329.246 69.9219C329.434 69.9219 329.91 69.9453 330.676 69.9922C331.457 70.0391 332.074 70.0625 332.527 70.0625L335.363 69.9219C335.41 70.0625 335.434 70.1953 335.434 70.3203C335.434 70.5859 335.402 70.7188 335.34 70.7188C335.246 70.7188 335.035 70.7656 334.707 70.8594C334.395 70.9531 334.168 71.0312 334.027 71.0938C333.824 71.2031 333.723 71.7734 333.723 72.8047L333.746 73.7891V74.3281C333.746 74.5781 333.785 74.8203 333.863 75.0547C333.941 75.2891 333.98 75.4062 333.98 75.4062C333.98 75.625 333.809 75.8125 333.465 75.9688C332.855 76.2344 332.395 76.4297 332.082 76.5547C331.785 76.6641 331.215 76.7969 330.371 76.9531C329.543 77.1094 328.621 77.1875 327.605 77.1875ZM350.879 77.1406C349.254 77.1406 347.973 76.7656 347.035 76.0156C346.488 75.5938 345.98 75.1016 345.512 74.5391C345.059 73.9766 344.66 73.4297 344.316 72.8984C343.973 72.3516 343.691 71.9062 343.473 71.5625C343.191 71.1562 342.918 70.7891 342.652 70.4609C342.402 70.1328 342.027 69.9688 341.527 69.9688C341.277 69.9688 341.152 70.1016 341.152 70.3672V73.6719C341.152 74.5781 341.215 75.2422 341.34 75.6641C341.371 75.7891 341.504 75.8984 341.738 75.9922C341.988 76.0859 342.254 76.1641 342.535 76.2266C342.816 76.2734 343.027 76.2969 343.168 76.2969C343.23 76.2969 343.262 76.4297 343.262 76.6953C343.262 76.8359 343.246 76.9688 343.215 77.0938C341.512 77 340.402 76.9531 339.887 76.9531C339.465 76.9531 338.988 76.9609 338.457 76.9766C337.941 76.9922 337.527 77.0156 337.215 77.0469L336.746 77.0938C336.699 77.0156 336.676 76.875 336.676 76.6719C336.676 76.4219 336.699 76.2969 336.746 76.2969C336.887 76.2969 337.074 76.2734 337.309 76.2266C337.543 76.1797 337.762 76.1172 337.965 76.0391C338.184 75.9609 338.309 75.875 338.34 75.7812C338.434 75.5 338.48 74.7891 338.48 73.6484V64.7891C338.48 63.8984 338.434 63.2578 338.34 62.8672C338.309 62.7734 338.184 62.6875 337.965 62.6094C337.762 62.5156 337.535 62.4375 337.285 62.375C337.051 62.3125 336.871 62.2812 336.746 62.2812C336.684 62.2812 336.652 62.1641 336.652 61.9297C336.652 61.6953 336.684 61.5547 336.746 61.5078C338.418 61.5547 339.457 61.5781 339.863 61.5781C340.629 61.5625 341.223 61.5547 341.645 61.5547C342.066 61.5547 342.387 61.5547 342.605 61.5547C342.824 61.5391 343.012 61.5312 343.168 61.5312C343.996 61.5312 344.809 61.6797 345.605 61.9766C346.402 62.2734 347.059 62.7266 347.574 63.3359C348.105 63.9453 348.371 64.7188 348.371 65.6562C348.371 66.2188 348.246 66.7656 347.996 67.2969C347.746 67.8281 347.41 68.2969 346.988 68.7031C346.566 69.1094 346.09 69.4219 345.559 69.6406C345.434 69.6875 345.402 69.7656 345.465 69.875C345.902 70.6562 346.34 71.3828 346.777 72.0547C347.215 72.7109 347.652 73.3125 348.09 73.8594C348.637 74.5312 349.223 75.1094 349.848 75.5938C350.488 76.0625 351.074 76.2969 351.605 76.2969C351.668 76.375 351.699 76.5 351.699 76.6719C351.699 76.8438 351.668 76.9844 351.605 77.0938C351.512 77.1094 351.402 77.1172 351.277 77.1172C351.168 77.1328 351.035 77.1406 350.879 77.1406ZM342.652 68.8438H343.262C343.84 68.8438 344.355 68.5703 344.809 68.0234C345.277 67.4766 345.512 66.7656 345.512 65.8906C345.512 63.7656 344.605 62.7031 342.793 62.7031C342.121 62.7031 341.668 62.7578 341.434 62.8672C341.246 62.9453 341.152 63.7578 341.152 65.3047V68C341.152 68.3438 341.285 68.5703 341.551 68.6797C341.816 68.7891 342.184 68.8438 342.652 68.8438ZM352.824 77.0703C352.762 77.0078 352.73 76.8906 352.73 76.7188C352.73 76.4375 352.746 76.2969 352.777 76.2969C352.902 76.2969 353.082 76.2656 353.316 76.2031C353.566 76.1406 353.801 76.0625 354.02 75.9688C354.254 75.8594 354.402 75.75 354.465 75.6406C354.621 75.4062 354.77 75.1406 354.91 74.8438C355.051 74.5312 355.199 74.1875 355.355 73.8125L359.715 63.2656C360.09 62.3125 360.379 61.75 360.582 61.5781C360.691 61.4688 360.824 61.4141 360.98 61.4141C361.09 61.4141 361.184 61.4531 361.262 61.5312L366.184 73.8125C366.309 74.1094 366.426 74.4062 366.535 74.7031C366.66 74.9844 366.777 75.2578 366.887 75.5234C366.949 75.6797 367.09 75.8203 367.309 75.9453C367.527 76.0547 367.754 76.1406 367.988 76.2031C368.223 76.2656 368.402 76.2969 368.527 76.2969C368.59 76.2969 368.621 76.4375 368.621 76.7188C368.621 76.8906 368.605 77.0078 368.574 77.0703L365.621 76.9297L362.574 77.0703C362.512 77.0078 362.48 76.8594 362.48 76.625C362.48 76.4062 362.512 76.2969 362.574 76.2969C362.762 76.2969 363.02 76.25 363.348 76.1562C363.676 76.0625 363.871 75.9531 363.934 75.8281C363.98 75.7344 364.004 75.6328 364.004 75.5234C364.004 75.3672 363.965 75.1562 363.887 74.8906C363.809 74.625 363.699 74.2969 363.559 73.9062L362.738 71.7266C362.676 71.6641 362.621 71.6328 362.574 71.6328C362.324 71.6172 362.027 71.6094 361.684 71.6094C361.355 71.5938 360.98 71.5859 360.559 71.5859C359.715 71.5859 358.824 71.6094 357.887 71.6562C357.793 71.6562 357.746 71.6875 357.746 71.75L356.855 73.9297C356.699 74.3203 356.582 74.6484 356.504 74.9141C356.441 75.1641 356.41 75.3438 356.41 75.4531C356.41 75.6406 356.496 75.7969 356.668 75.9219C356.762 75.9844 356.902 76.0469 357.09 76.1094C357.293 76.1562 357.496 76.2031 357.699 76.25C357.902 76.2812 358.043 76.2969 358.121 76.2969C358.168 76.3125 358.191 76.4219 358.191 76.625C358.191 76.7344 358.184 76.8281 358.168 76.9062C358.168 76.9688 358.16 77.0234 358.145 77.0703C357.566 77.0391 357.09 77.0078 356.715 76.9766C356.355 76.9453 356.02 76.9297 355.707 76.9297C355.395 76.9297 355.02 76.9375 354.582 76.9531C354.145 76.9688 353.559 77.0078 352.824 77.0703ZM360.137 70.3203C360.699 70.3203 361.34 70.2969 362.059 70.25L362.105 70.1562L360.324 65.4688L358.402 70.1562C358.402 70.2188 358.418 70.25 358.449 70.25C358.996 70.2969 359.559 70.3203 360.137 70.3203ZM383.715 77.1172C383.48 77.1172 383.23 76.9375 382.965 76.5781L373.637 64.2031V73.6953C373.637 74.6016 373.699 75.2422 373.824 75.6172C373.887 75.7422 374.043 75.8594 374.293 75.9688C374.559 76.0625 374.832 76.1406 375.113 76.2031C375.41 76.2656 375.621 76.2969 375.746 76.2969C375.793 76.2969 375.816 76.4062 375.816 76.625C375.832 76.8438 375.824 76.9922 375.793 77.0703L372.863 76.9297C372.582 76.9297 372.246 76.9453 371.855 76.9766C371.48 76.9922 371.121 77.0078 370.777 77.0234C370.449 77.0391 370.215 77.0547 370.074 77.0703C370.012 77.0078 369.98 76.875 369.98 76.6719C369.98 76.4219 370.012 76.2969 370.074 76.2969C370.262 76.2969 370.488 76.2734 370.754 76.2266C371.02 76.1641 371.27 76.0859 371.504 75.9922C371.754 75.8828 371.918 75.75 371.996 75.5938C372.152 75.2812 372.23 74.625 372.23 73.625V64.4375C372.23 63.6094 372.145 63.0391 371.973 62.7266C371.941 62.6484 371.801 62.5781 371.551 62.5156C371.301 62.4531 371.035 62.3984 370.754 62.3516C370.488 62.3047 370.277 62.2812 370.121 62.2812C370.059 62.2812 370.02 62.1641 370.004 61.9297C370.004 61.6953 370.035 61.5469 370.098 61.4844C370.926 61.5156 371.566 61.5469 372.02 61.5781C372.488 61.5938 372.777 61.6016 372.887 61.6016C373.152 61.6016 373.457 61.5938 373.801 61.5781C374.16 61.5469 374.559 61.5156 374.996 61.4844C375.34 62.1094 375.895 62.9453 376.66 63.9922C377.426 65.0391 378.332 66.25 379.379 67.625C380.426 68.9844 381.527 70.4688 382.684 72.0781C382.699 71.9844 382.707 71.8594 382.707 71.7031C382.723 71.5312 382.73 71.3359 382.73 71.1172V64.7422C382.73 63.8984 382.652 63.2734 382.496 62.8672C382.449 62.7422 382.309 62.6328 382.074 62.5391C381.84 62.4453 381.59 62.375 381.324 62.3281C381.059 62.2812 380.84 62.2578 380.668 62.2578C380.605 62.2578 380.566 62.1484 380.551 61.9297C380.551 61.6953 380.574 61.5469 380.621 61.4844C381.449 61.5469 382.105 61.5938 382.59 61.625C383.09 61.6406 383.418 61.6484 383.574 61.6484C383.777 61.6484 384.012 61.6406 384.277 61.625C384.543 61.6094 384.832 61.5859 385.145 61.5547C385.785 61.5078 386.184 61.4844 386.34 61.4844C386.371 61.5781 386.387 61.7031 386.387 61.8594C386.387 62.125 386.355 62.2578 386.293 62.2578C386.152 62.2578 385.949 62.2891 385.684 62.3516C385.418 62.3984 385.16 62.4688 384.91 62.5625C384.66 62.6562 384.488 62.7734 384.395 62.9141C384.223 63.3516 384.137 64 384.137 64.8594V73.7422C384.137 74.0234 384.145 74.4375 384.16 74.9844C384.176 75.5312 384.199 76.2109 384.23 77.0234C384.168 77.0859 383.996 77.1172 383.715 77.1172ZM387.699 77.0703C387.652 77.0234 387.629 76.8984 387.629 76.6953C387.629 76.4297 387.652 76.2969 387.699 76.2969C387.84 76.2969 388.02 76.2734 388.238 76.2266C388.473 76.1797 388.691 76.1172 388.895 76.0391C389.113 75.9609 389.238 75.875 389.27 75.7812C389.379 75.4688 389.434 74.7578 389.434 73.6484V64.7891C389.434 63.8359 389.379 63.1953 389.27 62.8672C389.238 62.7422 389.121 62.6406 388.918 62.5625C388.73 62.4688 388.512 62.3984 388.262 62.3516C388.027 62.3047 387.832 62.2812 387.676 62.2812C387.613 62.2812 387.582 62.1641 387.582 61.9297C387.582 61.7109 387.613 61.5703 387.676 61.5078C388.707 61.5547 389.746 61.5781 390.793 61.5781H394.848C396.113 61.5781 397.246 61.7812 398.246 62.1875C399.262 62.5781 400.113 63.125 400.801 63.8281C401.504 64.5312 402.035 65.3359 402.395 66.2422C402.77 67.1484 402.957 68.1094 402.957 69.125C402.957 70.625 402.629 71.9766 401.973 73.1797C401.332 74.3672 400.402 75.3125 399.184 76.0156C397.965 76.7188 396.512 77.0703 394.824 77.0703C394.668 77.0703 394.426 77.0625 394.098 77.0469C393.785 77.0469 393.387 77.0391 392.902 77.0234C392.418 77.0078 392.004 76.9922 391.66 76.9766C391.316 76.9609 391.035 76.9609 390.816 76.9766L387.699 77.0703ZM395.199 75.875C398.371 75.875 399.957 73.5938 399.957 69.0312C399.957 67.8594 399.762 66.8047 399.371 65.8672C398.996 64.9141 398.441 64.1562 397.707 63.5938C396.988 63.0312 396.098 62.75 395.035 62.75H394.918C393.418 62.75 392.574 62.875 392.387 63.125C392.184 63.3906 392.082 63.875 392.082 64.5781V73.7656C392.082 74.625 392.168 75.2031 392.34 75.5C392.59 75.75 393.543 75.875 395.199 75.875Z" fill="white"/>
</svg>
